<svg width="24" height="24" viewBox="0 0 24 24" fill="none" xmlns="http://www.w3.org/2000/svg">
<g clip-path="url(#clip0_105_23)">
<path d="M23.27 16.245C23.739 16.714 23.984 17.388 24 18C23.985 18.612 23.743 19.282 23.277 19.747L20.699 22.269C20.505 22.459 20.252 22.554 20 22.554C19.74 22.554 19.481 22.453 19.285 22.253C18.899 21.858 18.906 21.226 19.301 20.839L21.182 18.999H19.001C17.347 18.999 16.001 20.345 16.001 21.999V22.999C16.001 23.552 15.554 23.999 15.001 23.999C14.448 23.999 14.001 23.552 14.001 22.999V21.999C14.001 19.242 16.244 16.999 19.001 16.999H21.182L19.301 15.159C18.906 14.772 18.9 14.139 19.285 13.745C19.673 13.35 20.306 13.344 20.699 13.729L23.269 16.244L23.27 16.245ZM15 2C13.897 2 13 2.897 13 4V18.5C13 21.532 10.532 24 7.5 24C5.078 24 2.985 22.444 2.267 20.165C0.859 19.244 0 17.686 0 16C0 15.114 0.235 14.263 0.686 13.5C0.236 12.737 0 11.886 0 11C0 9.432 0.752 7.96 2 7.021V7C2 5.103 3.327 3.511 5.102 3.102C5.511 1.328 7.104 0 9 0C10.194 0 11.267 0.526 12 1.357C12.733 0.525 13.806 0 15 0C16.896 0 18.489 1.327 18.898 3.102C20.672 3.511 22 5.103 22 7V7.021C23.248 7.96 24 9.431 24 11C24 11.425 23.944 11.848 23.835 12.257C23.716 12.705 23.312 13 22.87 13C22.784 13 22.698 12.989 22.611 12.966C22.078 12.824 21.76 12.276 21.903 11.742C21.967 11.5 22 11.25 22 10.999C22 9.929 21.409 8.932 20.457 8.396C20.087 8.188 19.889 7.769 19.963 7.351C19.983 7.236 20 7.12 20 6.999C20 5.896 19.103 4.999 18 4.999C17.447 4.999 17 4.551 17 3.999C17 2.896 16.103 1.999 15 1.999V2ZM11 4C11 2.897 10.103 2 9 2C7.897 2 7 2.897 7 4C7 4.552 6.553 5 6 5C4.897 5 4 5.897 4 7C4 7.121 4.018 7.237 4.037 7.352C4.111 7.77 3.913 8.189 3.543 8.397C2.591 8.932 2 9.93 2 11C2 11.675 2.234 12.322 2.679 12.872C2.975 13.239 2.975 13.762 2.679 14.129C2.235 14.678 2 15.325 2 16C2 17.096 2.611 18.104 3.597 18.631C3.851 18.768 4.034 19.007 4.099 19.288C4.467 20.885 5.867 22 7.5 22C9.43 22 11 20.43 11 18.5V4Z" fill="white"/>
</g>
<defs>
<clipPath id="clip0_105_23">
<rect width="24" height="24" fill="white"/>
</clipPath>
</defs>
</svg>
