<svg width="16" height="16" viewBox="0 0 16 16" fill="none" xmlns="http://www.w3.org/2000/svg">
<g clip-path="url(#clip0_105_3)">
<path d="M8.66668 0.666633C8.66668 0.489822 8.73692 0.320252 8.86194 0.195228C8.98696 0.0702039 9.15653 -3.39877e-05 9.33334 -3.39877e-05C11.1009 0.00190708 12.7954 0.704909 14.0452 1.95473C15.2951 3.20455 15.9981 4.89912 16 6.66663C16 6.84344 15.9298 7.01301 15.8047 7.13804C15.6797 7.26306 15.5102 7.3333 15.3333 7.3333C15.1565 7.3333 14.987 7.26306 14.8619 7.13804C14.7369 7.01301 14.6667 6.84344 14.6667 6.66663C14.6651 5.25263 14.1027 3.897 13.1028 2.89715C12.103 1.8973 10.7473 1.33489 9.33334 1.3333C9.15653 1.3333 8.98696 1.26306 8.86194 1.13804C8.73692 1.01301 8.66668 0.843444 8.66668 0.666633V0.666633ZM9.33334 3.99997C10.0406 3.99997 10.7189 4.28092 11.219 4.78101C11.7191 5.28111 12 5.95939 12 6.66663C12 6.84344 12.0702 7.01301 12.1953 7.13804C12.3203 7.26306 12.4899 7.3333 12.6667 7.3333C12.8435 7.3333 13.0131 7.26306 13.1381 7.13804C13.2631 7.01301 13.3333 6.84344 13.3333 6.66663C13.3323 5.60609 12.9105 4.58929 12.1606 3.83938C11.4107 3.08946 10.3939 2.66769 9.33334 2.66663C9.15653 2.66663 8.98696 2.73687 8.86194 2.8619C8.73692 2.98692 8.66668 3.15649 8.66668 3.3333C8.66668 3.51011 8.73692 3.67968 8.86194 3.8047C8.98696 3.92973 9.15653 3.99997 9.33334 3.99997V3.99997ZM15.3953 11.1593C15.7817 11.5467 15.9986 12.0715 15.9986 12.6186C15.9986 13.1658 15.7817 13.6906 15.3953 14.078L14.7887 14.7773C9.32868 20.0046 -3.95799 6.7213 1.18868 1.24397L1.95534 0.577299C2.34319 0.201751 2.8633 -0.00600127 3.40315 -0.00101076C3.943 0.00397975 4.45917 0.221312 4.84001 0.603966C4.86068 0.624633 6.09601 2.2293 6.09601 2.2293C6.46256 2.61438 6.66661 3.12592 6.66574 3.65757C6.66488 4.18922 6.45915 4.70008 6.09134 5.08397L5.31934 6.05463C5.74658 7.09271 6.37472 8.03613 7.16768 8.8307C7.96065 9.62526 8.9028 10.2553 9.94001 10.6846L10.9167 9.90797C11.3006 9.54044 11.8114 9.33496 12.3429 9.33422C12.8744 9.33347 13.3857 9.53752 13.7707 9.90397C13.7707 9.90397 15.3747 11.1386 15.3953 11.1593ZM14.478 12.1286C14.478 12.1286 12.8827 10.9013 12.862 10.8806C12.7247 10.7445 12.5391 10.668 12.3457 10.668C12.1523 10.668 11.9667 10.7445 11.8293 10.8806C11.8113 10.8993 10.4667 11.9706 10.4667 11.9706C10.3761 12.0428 10.2682 12.09 10.1538 12.1078C10.0393 12.1256 9.92223 12.1132 9.81401 12.072C8.47032 11.5717 7.24984 10.7885 6.23523 9.77535C5.22063 8.76225 4.43561 7.54292 3.93334 6.19997C3.88881 6.09027 3.87429 5.97069 3.89128 5.85353C3.90827 5.73636 3.95615 5.62583 4.03001 5.5333C4.03001 5.5333 5.10134 4.18797 5.11934 4.17063C5.25552 4.03329 5.33193 3.84771 5.33193 3.6543C5.33193 3.46089 5.25552 3.27531 5.11934 3.13797C5.09868 3.11797 3.87134 1.5213 3.87134 1.5213C3.73194 1.3963 3.55001 1.32936 3.36284 1.3342C3.17567 1.33903 2.99744 1.41527 2.86468 1.5473L2.09801 2.21397C-1.66332 6.73663 9.85068 17.612 13.814 13.8666L14.4213 13.1666C14.5637 13.0348 14.6491 12.8528 14.6597 12.6591C14.6703 12.4654 14.6051 12.2752 14.478 12.1286V12.1286Z" fill="#FF6B00"/>
</g>
<defs>
<clipPath id="clip0_105_3">
<rect width="16" height="16" fill="white"/>
</clipPath>
</defs>
</svg>
